# File created by Blade
# Date/Time:  Thu Jan 15 17:55:17 2015
#---------------------------------------------------------
:version 1.10
:name HOM
:units
  mass 1.0
  length 1.000000
  angle deg
:documentation
     Acclaim Skeleton File
:root
   axis xyz
   order TX TY TZ RX RY RZ
   position 0.000000 0.000000 0.000000
   orientation 0 0 0
:bonedata
   begin
      id 1
      name Spine_dum
      direction 0.000000 1.000000 0.000000
      length 5.015652
      axis 0.0 0.0 0.0 xyz
   end
   begin
      id 2
      name LeftUpLeg_dum
      direction 1.000000 0.000000 0.000000
      length 4.275145
      axis 0.0 0.0 0.0 xyz
   end
   begin
      id 3
      name RightUpLeg_dum
      direction -1.000000 0.000000 0.000000
      length 4.275145
      axis 0.0 0.0 0.0 xyz
   end
   begin
      id 4
      name Spine
      direction 0.000000 1.000000 0.000000
      length 0.000000
      axis 0.0 0.0 0.0 xyz
      dof rx ry rz
   end
   begin
      id 5
      name Spine_dum1
      direction 0.000000 1.000000 0.000000
      length 15.980521
      axis 0.0 0.0 0.0 xyz
   end
   begin
      id 6
      name Spine_dum2
      direction 0.000000 1.000000 0.000000
      length 12.162712
      axis 0.0 0.0 0.0 xyz
   end
   begin
      id 7
      name Spine_dum3
      direction 0.000000 1.000000 0.000000
      length 12.162712
      axis 0.0 0.0 0.0 xyz
   end
   begin
      id 8
      name Head
      direction 0.000000 1.000000 0.000000
      length 4.527550
      axis 0.0 0.0 0.0 xyz
      dof rx ry rz
   end
   begin
      id 9
      name LeftShoulder
      direction 1.000000 0.000000 0.000000
      length 7.205867
      axis 0.0 0.0 -90.0 xyz
      dof rx ry rz
   end
   begin
      id 10
      name LeftArm
      direction 1.000000 0.000000 0.000000
      length 10.786708
      axis 0.0 0.0 -90.0 xyz
      dof rx ry rz
   end
   begin
      id 11
      name LeftForeArm
      direction 1.000000 0.000000 0.000000
      length 7.946034
      axis 0.0 0.0 -90.0 xyz
      dof rz ry rx
   end
   begin
      id 12
      name LeftHand
      direction 0.000000 0.000000 0.000000
      length 0.000000
      axis 0.0 0.0 -90.0 xyz
      dof rx ry rz
   end
   begin
      id 13
      name LeftHand_dum1
      direction 0.000000 0.000000 0.000000
      length 0.000000
      axis 0.0 0.0 -90.0 xyz
   end
   begin
      id 14
      name LeftHand_dum2
      direction 1.000000 0.000000 0.000000
      length 3.937000
      axis 0.0 0.0 -90.0 xyz
   end
   begin
      id 15
      name LeftHandThumb1
      direction 0.000000 0.000000 1.000000
      length 3.937000
      axis 0.0 0.0 -90.0 xyz
      dof rx ry rz
   end
   begin
      id 16
      name RightShoulder
      direction -1.000000 0.000000 0.000000
      length 7.205867
      axis 0.0 0.0 90.0 xyz
      dof rx ry rz
   end
   begin
      id 17
      name RightArm
      direction -1.000000 0.000000 0.000000
      length 10.786708
      axis 0.0 0.0 90.0 xyz
      dof rx ry rz
   end
   begin
      id 18
      name RightForeArm
      direction -1.000000 0.000000 0.000000
      length 7.946034
      axis 0.0 0.0 90.0 xyz
      dof rz ry rx
   end
   begin
      id 19
      name RightHand
      direction 0.000000 0.000000 0.000000
      length 0.000000
      axis 0.0 0.0 90.0 xyz
      dof rx ry rz
   end
   begin
      id 20
      name RightHand_dum1
      direction 0.000000 0.000000 0.000000
      length 0.000000
      axis 0.0 0.0 90.0 xyz
   end
   begin
      id 21
      name RightHand_dum2
      direction -1.000000 0.000000 0.000000
      length 3.937000
      axis 0.0 0.0 90.0 xyz
   end
   begin
      id 22
      name RightHandThumb1
      direction 0.000000 0.000000 1.000000
      length 3.937000
      axis 0.0 0.0 90.0 xyz
      dof rx ry rz
   end
   begin
      id 23
      name LeftUpLeg
      direction 0.000000 -1.000000 0.000000
      length 17.046659
      axis 0.0 0.0 0.0 xyz
      dof rx ry rz
   end
   begin
      id 24
      name LeftLeg
      direction 0.000000 -1.000000 0.000000
      length 17.458438
      axis 0.0 0.0 0.0 xyz
      dof rx ry rz
   end
   begin
      id 25
      name LeftFoot
      direction 0.000000 -0.258819 0.965926
      length 5.099406
      axis 15.0 0.0 0.0 xyz
      dof rx ry rz
   end
   begin
      id 26
      name LeftToeBase
      direction 0.000000 0.000000 1.000000
      length 2.952750
      axis 0.0 0.0 0.0 xyz
      dof rx ry rz
   end
   begin
      id 27
      name RightUpLeg
      direction 0.000000 -1.000000 0.000000
      length 17.046659
      axis 0.0 0.0 0.0 xyz
      dof rx ry rz
   end
   begin
      id 28
      name RightLeg
      direction 0.000000 -1.000000 0.000000
      length 17.458438
      axis 0.0 0.0 0.0 xyz
      dof rx ry rz
   end
   begin
      id 29
      name RightFoot
      direction 0.000000 -0.258819 0.965926
      length 5.099406
      axis 15.0 0.0 0.0 xyz
      dof rx ry rz
   end
   begin
      id 30
      name RightToeBase
      direction 0.000000 0.000000 1.000000
      length 2.952750
      axis 0.0 0.0 0.0 xyz
      dof rx ry rz
   end
:hierarchy
   begin
      root Spine_dum LeftUpLeg_dum RightUpLeg_dum
      Spine_dum Spine
      LeftUpLeg_dum LeftUpLeg
      RightUpLeg_dum RightUpLeg
      Spine Spine_dum1 Spine_dum2 Spine_dum3
      Spine_dum1 Head
      Spine_dum2 LeftShoulder
      Spine_dum3 RightShoulder
      LeftShoulder LeftArm
      LeftArm LeftForeArm
      LeftForeArm LeftHand
      LeftHand LeftHand_dum1 LeftHand_dum2
      LeftHand_dum1 LeftHandThumb1
      RightShoulder RightArm
      RightArm RightForeArm
      RightForeArm RightHand
      RightHand RightHand_dum1 RightHand_dum2
      RightHand_dum1 RightHandThumb1
      LeftUpLeg LeftLeg
      LeftLeg LeftFoot
      LeftFoot LeftToeBase
      RightUpLeg RightLeg
      RightLeg RightFoot
      RightFoot RightToeBase
   end

# File created by Blade
# Date/Time:  Thu Jan 15 17:55:09 2015
# Frame Rate: 120.000 fps
#------------------------------------------------------
:FULLY-SPECIFIED
:DEGREES
1
root 5.376087 35.760829 -11.103483 5.430012 -1.361606 1.627675
Spine -9.613069 -15.313287 -1.778675
Head 1.361671 10.794511 16.610499
LeftShoulder -32.761415 2.997073 14.639583
LeftArm 15.347860 -45.819333 -19.374573
LeftForeArm -0.000000 23.380345 -4.112936
LeftHand 0.763402 -0.000000 -3.163192
LeftHandThumb1 -26.253704 33.147579 0.000000
RightShoulder -2.662570 18.183165 -13.814139
RightArm 6.066693 34.826119 22.080217
RightForeArm -0.000000 -48.454615 12.001636
RightHand -3.393792 -0.000000 5.198759
RightHandThumb1 -24.326973 -32.862282 -0.000000
LeftUpLeg -0.750958 11.737385 -1.239622
LeftLeg 0.142952 -0.000000 -0.000000
LeftFoot -23.112179 18.851478 -15.438888
LeftToeBase 25.299427 -0.000000 -0.000000
RightUpLeg 0.421206 -14.364646 -1.657761
RightLeg -2.700937 -0.000000 0.000000
RightFoot -21.858142 -23.572275 11.904833
RightToeBase 27.266878 -0.000000 -0.000000
2
root 5.375658 35.760609 -11.100404 5.433338 -1.357934 1.627364
Spine -9.611809 -15.322472 -1.777121
Head 1.337981 10.817128 16.589177
LeftShoulder -32.755944 2.992008 14.633227
LeftArm 15.334571 -45.825737 -19.375570
LeftForeArm -0.000000 23.411578 -4.105422
LeftHand 0.776798 -0.000000 -3.213261
LeftHandThumb1 -26.253704 33.147579 0.000000
RightShoulder -2.649847 18.186709 -13.813172
RightArm 6.064963 34.860342 22.065748
RightForeArm -0.000000 -48.459217 11.997430
RightHand -3.456920 -0.000000 5.233141
RightHandThumb1 -24.326973 -32.862282 -0.000000
LeftUpLeg -0.750310 11.751490 -1.238077
LeftLeg 0.142947 -0.000000 -0.000000
LeftFoot -23.095711 18.841991 -15.422488
LeftToeBase 25.270360 -0.000000 -0.000000
RightUpLeg 0.425205 -14.382000 -1.657953
RightLeg -2.701716 -0.000000 0.000000
RightFoot -21.858717 -23.546750 11.913332
RightToeBase 27.264582 -0.000000 -0.000000
3
root 5.375252 35.760550 -11.097708 5.437378 -1.360291 1.627244
Spine -9.607841 -15.322177 -1.781886
Head 1.312363 10.829345 16.578338
LeftShoulder -32.755457 2.996213 14.624207
LeftArm 15.351385 -45.842864 -19.395763
LeftForeArm 0.000000 23.415288 -4.113038
LeftHand 0.799232 -0.000000 -3.243193
LeftHandThumb1 -26.253704 33.147579 0.000000
RightShoulder -2.650323 18.194658 -13.808469
RightArm 6.079889 34.847242 22.057216
RightForeArm 0.000000 -48.404965 11.985613
RightHand -3.493472 -0.000000 5.228374
RightHandThumb1 -24.326973 -32.862282 -0.000000
LeftUpLeg -0.747172 11.750219 -1.237399
LeftLeg 0.138762 -0.000000 -0.000000
LeftFoot -23.115594 18.834626 -15.442134
LeftToeBase 25.301766 -0.000000 -0.000000
RightUpLeg 0.423916 -14.389272 -1.656765
RightLeg -2.700041 -0.000000 0.000000
RightFoot -21.869163 -23.535775 11.919006
RightToeBase 27.253685 -0.000000 -0.000000
4
root 5.375311 35.760518 -11.095051 5.447927 -1.363265 1.626848
Spine -9.611837 -15.317504 -1.783422
Head 1.290545 10.862193 16.568292
LeftShoulder -32.750311 2.985589 14.618289
LeftArm 15.350284 -45.830596 -19.396465
LeftForeArm -0.000000 23.468195 -4.115906
LeftHand 0.843911 -0.000000 -3.321815
LeftHandThumb1 -26.253704 33.147579 0.000000
RightShoulder -2.646296 18.206068 -13.813850
RightArm 6.067599 34.859809 22.046950
RightForeArm -0.000000 -48.428206 11.981664
RightHand -3.481858 -0.000000 5.220880
RightHandThumb1 -24.326973 -32.862282 -0.000000
LeftUpLeg -0.750556 11.762930 -1.239104
LeftLeg 0.129949 -0.000000 -0.000000
LeftFoot -23.111708 18.833738 -15.431030
LeftToeBase 25.328172 -0.000000 -0.000000
RightUpLeg 0.419919 -14.385279 -1.655300
RightLeg -2.707220 -0.000000 0.000000
RightFoot -21.864029 -23.544402 11.924942
RightToeBase 27.246191 -0.000000 -0.000000
5
root 5.375037 35.760674 -11.091566 5.455002 -1.365893 1.631220
Spine -9.615664 -15.319696 -1.792053
Head 1.275625 10.893823 16.561500
LeftShoulder -32.750479 2.987890 14.607344
LeftArm 15.357621 -45.813096 -19.401552
LeftForeArm 0.000000 23.435159 -4.124622
LeftHand 0.800371 -0.000000 -3.261385
LeftHandThumb1 -26.253704 33.147579 0.000000
RightShoulder -2.639847 18.173629 -13.800336
RightArm 6.102345 34.876337 22.043321
RightForeArm -0.000000 -48.395892 11.963210
RightHand -3.522884 -0.000000 5.208526
RightHandThumb1 -24.326973 -32.862282 -0.000000
LeftUpLeg -0.746315 11.790607 -1.243833
LeftLeg 0.123691 -0.000000 -0.000000
LeftFoot -23.092647 18.802861 -15.425012
LeftToeBase 25.295367 -0.000000 -0.000000
RightUpLeg 0.423093 -14.385320 -1.658697
RightLeg -2.717080 -0.000000 0.000000
RightFoot -21.858953 -23.534808 11.923950
RightToeBase 27.233143 -0.000000 -0.000000
6
root 5.375094 35.760656 -11.088744 5.466169 -1.366349 1.632328
Spine -9.622182 -15.307116 -1.797470
Head 1.256775 10.897702 16.554089
LeftShoulder -32.720982 2.971466 14.617195
LeftArm 15.334028 -45.767126 -19.400094
LeftForeArm -0.000000 23.393364 -4.125394
LeftHand 0.762084 0.000000 -3.230536
LeftHandThumb1 -26.253704 33.147579 0.000000
RightShoulder -2.647791 18.166417 -13.794298
RightArm 6.111549 34.894381 22.030349
RightForeArm -0.000000 -48.418703 11.952292
RightHand -3.543068 -0.000000 5.196404
RightHandThumb1 -24.326973 -32.862282 -0.000000
LeftUpLeg -0.751452 11.785550 -1.246463
LeftLeg 0.120025 -0.000000 -0.000000
LeftFoot -23.097735 18.803269 -15.443269
LeftToeBase 25.290355 -0.000000 -0.000000
RightUpLeg 0.419025 -14.378815 -1.657741
RightLeg -2.724109 -0.000000 0.000000
RightFoot -21.857705 -23.551822 11.926876
RightToeBase 27.228417 -0.000000 -0.000000
7
root 5.375126 35.760392 -11.085485 5.475123 -1.365112 1.634814
Spine -9.625664 -15.310829 -1.796713
Head 1.237045 10.939800 16.526255
LeftShoulder -32.717597 2.983932 14.587941
LeftArm 15.336615 -45.727146 -19.394363
LeftForeArm -0.000000 23.337061 -4.124301
LeftHand 0.711272 -0.000000 -3.190983
LeftHandThumb1 -26.253704 33.147579 0.000000
RightShoulder -2.638567 18.187630 -13.795068
RightArm 6.108279 34.891184 22.023853
RightForeArm 0.000000 -48.384901 11.974674
RightHand -3.641882 -0.000000 5.225292
RightHandThumb1 -24.326973 -32.862282 -0.000000
LeftUpLeg -0.752730 11.777843 -1.250334
LeftLeg 0.114753 -0.000000 -0.000000
LeftFoot -23.093936 18.808332 -15.453736
LeftToeBase 25.239348 -0.000000 -0.000000
RightUpLeg 0.419515 -14.386833 -1.660106
RightLeg -2.732286 -0.000000 0.000000
RightFoot -21.865240 -23.544392 11.926200
RightToeBase 27.248572 -0.000000 -0.000000
8
root 5.374813 35.760122 -11.082565 5.487433 -1.369324 1.634843
Spine -9.632534 -15.304637 -1.798504
Head 1.216712 10.960987 16.515210
LeftShoulder -32.711885 2.983229 14.581162
LeftArm 15.342415 -45.701540 -19.407932
LeftForeArm -0.000000 23.338548 -4.123040
LeftHand 0.681082 -0.000000 -3.186111
LeftHandThumb1 -26.253704 33.147579 0.000000
RightShoulder -2.635175 18.171417 -13.800404
RightArm 6.104595 34.914370 22.024930
RightForeArm -0.000000 -48.385765 11.979334
RightHand -3.640720 0.000000 5.229650
RightHandThumb1 -24.326973 -32.862282 -0.000000
LeftUpLeg -0.760528 11.761458 -1.250836
LeftLeg 0.118034 -0.000000 -0.000000
LeftFoot -23.127758 18.814899 -15.469332
LeftToeBase 25.302779 -0.000000 -0.000000
RightUpLeg 0.414725 -14.371136 -1.658584
RightLeg -2.738870 -0.000000 0.000000
RightFoot -21.861246 -23.555871 11.922551
RightToeBase 27.208171 -0.000000 -0.000000
9
root 5.375212 35.759384 -11.078966 5.518641 -1.364478 1.646991
Spine -9.666780 -15.301161 -1.809619
Head 1.203018 10.968194 16.512706
LeftShoulder -32.698416 2.998075 14.583026
LeftArm 15.362318 -45.707448 -19.448065
LeftForeArm -0.000000 23.376538 -4.129734
LeftHand 0.693006 -0.000000 -3.208123
LeftHandThumb1 -26.253704 33.147579 0.000000
RightShoulder -2.636282 18.167330 -13.805593
RightArm 6.091072 34.957877 22.014869
RightForeArm -0.000000 -48.426013 11.955611
RightHand -3.517941 -0.000000 5.217675
RightHandThumb1 -24.326973 -32.862282 -0.000000
LeftUpLeg -0.781320 11.757422 -1.268218
LeftLeg 0.107736 -0.000000 -0.000000
LeftFoot -23.115431 18.811949 -15.475333
LeftToeBase 25.298190 -0.000000 -0.000000
RightUpLeg 0.397347 -14.383990 -1.664806
RightLeg -2.752626 -0.000000 0.000000
RightFoot -21.873725 -23.545050 11.923739
RightToeBase 27.272213 -0.000000 -0.000000
10
root 5.374235 35.759114 -11.075545 5.530293 -1.366338 1.646432
Spine -9.673251 -15.297745 -1.812085
Head 1.184405 10.994972 16.502756
LeftShoulder -32.685837 2.994539 14.578266
LeftArm 15.350030 -45.687711 -19.449542
LeftForeArm -0.000000 23.387093 -4.134339
LeftHand 0.708032 0.000000 -3.262538
LeftHandThumb1 -26.253704 33.147579 0.000000
RightShoulder -2.645588 18.167089 -13.804827
RightArm 6.105069 34.924104 22.015233
RightForeArm -0.000000 -48.382011 11.966190
RightHand -3.574625 -0.000000 5.241107
RightHandThumb1 -24.326973 -32.862282 -0.000000
LeftUpLeg -0.789402 11.758798 -1.268606
LeftLeg 0.110951 -0.000000 -0.000000
LeftFoot -23.118067 18.811672 -15.485419
LeftToeBase 25.242402 -0.000000 -0.000000
RightUpLeg 0.393162 -14.392560 -1.660618
RightLeg -2.758679 -0.000000 0.000000
RightFoot -21.868622 -23.539561 11.914822
RightToeBase 27.213363 -0.000000 -0.000000
